<svg id="svg8952" xmlns="http://www.w3.org/2000/svg" xmlns:xlink="http://www.w3.org/1999/xlink" viewBox="0 0 566.93 566.93"><defs><style>.cls-1,.cls-2,.cls-3,.cls-4,.cls-5,.cls-6,.cls-7,.cls-8,.cls-9{stroke:#000;stroke-linecap:round;stroke-linejoin:round;stroke-width:0.5px;}.cls-1{fill:url(#linear-gradient);}.cls-2{fill:url(#linear-gradient-2);}.cls-3{fill:url(#linear-gradient-3);}.cls-4{fill:#8b9c71;}.cls-5{fill:#626e4f;}.cls-6{fill:url(#linear-gradient-4);}.cls-7{fill:none;}.cls-8{opacity:0.5;isolation:isolate;fill:url(#radial-gradient);}.cls-9{fill:#483e37;}</style><linearGradient id="linear-gradient" x1="3316.52" y1="594.05" x2="3450.74" y2="454.91" gradientTransform="matrix(0, 0.48, 0.48, 0, -232.57, -1120.32)" gradientUnits="userSpaceOnUse"><stop offset="0" stop-color="#b8d093"/><stop offset="0.19" stop-color="#8b9c71"/><stop offset="1" stop-color="#39412d"/></linearGradient><linearGradient id="linear-gradient-2" x1="3294.77" y1="573.07" x2="3428.99" y2="433.93" xlink:href="#linear-gradient"/><linearGradient id="linear-gradient-3" x1="2828.23" y1="1127.82" x2="2978.47" y2="995.24" gradientTransform="matrix(0, 0.5, 0.5, 0, -244.33, -1180.18)" xlink:href="#linear-gradient"/><linearGradient id="linear-gradient-4" x1="2820.3" y1="131.01" x2="2820.3" y2="105.86" gradientTransform="matrix(0, 0.46, 0.46, 0, 225.18, -844.58)" gradientUnits="userSpaceOnUse"><stop offset="0" stop-color="#b8d093"/><stop offset="0.3" stop-color="#8b9c71"/><stop offset="1" stop-color="#39412d"/></linearGradient><radialGradient id="radial-gradient" cx="535.11" cy="-133.42" r="30.25" gradientTransform="matrix(0.31, 0.26, 0.19, -0.22, 149.07, 112.82)" gradientUnits="userSpaceOnUse"><stop offset="0" stop-opacity="0"/><stop offset="1"/></radialGradient></defs><title>tank</title><g id="g28001"><g id="g28003"><path id="path28005" class="cls-1" d="M301.31,227a14,14,0,0,0-.87-4.87H297.9a11.86,11.86,0,0,0-2.34-3.35,11.38,11.38,0,0,0-3.31-2.31v-2.53a14,14,0,0,0-9.79,0v2.53a11.45,11.45,0,0,0-3.34,2.33l-.08.07a11.86,11.86,0,0,0-2.24,3.26h-2.52a14,14,0,0,0,0,9.78h2.51a11.7,11.7,0,0,0,2.35,3.35,11.38,11.38,0,0,0,3.31,2.31v2.53a14,14,0,0,0,9.79,0v-2.54a11.61,11.61,0,0,0,5.66-5.65h2.53A14,14,0,0,0,301.31,227Z"/><path id="path28007" class="cls-2" d="M277.14,222a11.5,11.5,0,0,0-5.58-5.54v-2.53a14,14,0,0,0-9.79,0v2.53a11.45,11.45,0,0,0-3.34,2.33l-.08.07a11.44,11.44,0,0,0-2.24,3.26h-2.53a14,14,0,0,0,0,9.78h2.51a11.7,11.7,0,0,0,2.35,3.35,11.38,11.38,0,0,0,3.31,2.31v2.53a14,14,0,0,0,9.79,0v-2.54a11.58,11.58,0,0,0,3.34-2.33,11.44,11.44,0,0,0,2.24-3.17Z"/></g><path id="path28009" class="cls-3" d="M229.45,278.19,242.92,335c1.88,3.49,6.06,14,18.57,16.56h40.95c6.63-.06,13.15-3.29,19.3-18.75l14.92-59.88L321.37,214.3c-3.15-9.16-8.18-12.29-13.74-13.75H261.49c-5.48,2.8-9.31-1.5-17.15,11.37L229.82,262Z"/><path id="path28011" class="cls-4" d="M238.37,273.07l12.14,47.42c2.36,6,4.14,13.72,14.57,15.94h34.14c5.52-.05,11-2.84,16.08-16.19l12.44-51.73L315,217.89c-2.63-7.92-6.82-10.62-11.46-11.87H265.08c-4.57,2.41-7.76-1.31-14.3,9.81l-12.1,43.25Z"/><path id="path28013" class="cls-5" d="M317,313.31H248.68l1.83,7.17c2.36,6,4.14,13.74,14.57,16h34.13c5.53-.05,11-2.84,16.09-16.19Z"/></g><path id="path28015" class="cls-6" d="M289.79,345.5h-3.51a4.17,4.17,0,0,0-1.71-3.23,7,7,0,0,0-8.22,0l0,0a4.11,4.11,0,0,0-1.65,3.21h-2.59v14.08a2.93,2.93,0,0,0,2.93,2.93h1.18l2.35,146h4.68l2.35-146h1.3a2.93,2.93,0,0,0,2.93-2.93V345.5Zm-3.16,183.81h-1.85l-.31-7.52h-6.64l-.3,7.52h-1.39V532h1.65v2.27h-1.65v1.34h1.65v2.52h-1.65v1.34h10.49v-1.34h-2.21v-2.52h2.21v-1.34h-2.21V532h2.21Zm-2.21-16.64h-6.63v9h6.63Zm0-3.95h-6.63v3.9h6.63Z"/><path id="path28017" class="cls-7" d="M286.63,529.31H276.14V532h1.65v2.27h-1.65v1.34h1.65v2.52h-1.65v1.34h10.49v-1.34h-2.21v-2.52h2.21v-1.34h-2.21V532h2.21Z"/><path id="path28045" class="cls-7" d="M285.56,362.51l-2.34,146h-4.69l-2.35-146Z"/><rect id="rect28047" class="cls-7" x="277.75" y="508.73" width="6.64" height="3.9"/><rect id="rect28049" class="cls-7" x="277.79" y="512.67" width="6.64" height="9.04"/><path id="path28051" class="cls-7" d="M284.47,521.79l.33,8.13h-7.3l.33-8.13Z"/><rect id="rect28053" class="cls-7" x="276.13" y="529.3" width="10.49" height="2.65"/><rect id="rect28055" class="cls-7" x="276.13" y="538.1" width="10.49" height="1.33"/><rect id="rect28057" class="cls-7" x="276.13" y="534.24" width="10.49" height="1.33"/><path id="path28117" class="cls-4" d="M291.12,225.55a3.73,3.73,0,1,1,0,5.29,3.73,3.73,0,0,1,0-5.29"/><g id="g28145"><path id="path28147" class="cls-4" d="M320.64,260H286.13"/><g id="g28149"><path id="path28151" class="cls-4" d="M299.83,261.49a6.09,6.09,0,0,1,8.29,0,5.39,5.39,0,0,1,0,7.88,6.1,6.1,0,0,1-8.29,0,5.37,5.37,0,0,1-.07-7.87"/><path id="path28153" class="cls-4" d="M301.29,262.61a3.69,3.69,0,0,1,5.38,0,4.11,4.11,0,0,1,0,5.63,3.7,3.7,0,0,1-5.39,0,4.13,4.13,0,0,1-.05-5.64"/><path id="path28155" class="cls-4" d="M305.69,263l.94,6.1h-5.7l.94-6.1Z"/></g><g id="g28157"><rect id="rect28159" class="cls-4" x="311.32" y="261.97" width="6.1" height="1.47"/><path id="path28161" class="cls-4" d="M315.84,255.69l.52,6.28h-4l.53-6.28Z"/></g><g id="g28163"><rect id="rect28165" class="cls-4" x="289.5" y="261.97" width="6.1" height="1.47"/><path id="path28167" class="cls-4" d="M294,255.69l.53,6.28h-4l.53-6.28Z"/></g><path id="path28169" class="cls-4" d="M288.18,239.24a21.12,21.12,0,1,1-.13.13"/><path id="path28171" class="cls-4" d="M290.06,241.11a19.33,19.33,0,1,1-.11.12"/><path id="path28173" class="cls-4" d="M320.64,260.21H286.13"/><g id="g28175"><path id="path28177" class="cls-4" d="M299.83,261.66a6.08,6.08,0,0,1,8.29,0,5.38,5.38,0,0,1,0,7.87,6.08,6.08,0,0,1-8.29.05,5.37,5.37,0,0,1-.07-7.87"/><path id="path28179" class="cls-4" d="M301.29,262.78a3.69,3.69,0,0,1,5.38,0,4.13,4.13,0,0,1,0,5.64,3.71,3.71,0,0,1-5.39,0,4.13,4.13,0,0,1-.05-5.64"/><path id="path28181" class="cls-4" d="M305.69,263.19l.94,6.1h-5.7l.94-6.1Z"/></g><g id="g28183"><rect id="rect28185" class="cls-4" x="311.32" y="262.13" width="6.1" height="1.47"/><path id="path28187" class="cls-4" d="M315.84,255.85l.52,6.28h-4l.53-6.28Z"/></g><g id="g28189"><rect id="rect28191" class="cls-4" x="289.5" y="262.13" width="6.1" height="1.47"/><path id="path28193" class="cls-4" d="M294,255.85l.53,6.28h-4l.53-6.28Z"/></g></g><g id="g28195"><path id="path28197" class="cls-4" d="M248.9,242.1a18.2,18.2,0,1,1-.1.11"/><path id="path28199" class="cls-4" d="M250.43,243.62a16,16,0,1,1-.09.1"/><g id="g28201"><rect id="rect28203" class="cls-4" x="255.93" y="267.68" width="12.11" height="7.3"/><rect id="rect28205" class="cls-4" x="262.49" y="269.09" width="3.82" height="4.48"/><rect id="rect28207" class="cls-4" x="257.42" y="269.09" width="2.82" height="4.48"/></g><path id="path28209" class="cls-4" d="M248.9,242.27a17.32,17.32,0,1,1-.1.1"/><path id="path28211" class="cls-4" d="M250.43,243.79a15.18,15.18,0,1,1-.09.09"/><g id="g28213"><rect id="rect28215" class="cls-4" x="255.93" y="267.84" width="12.11" height="7.3"/><rect id="rect28217" class="cls-4" x="262.49" y="269.25" width="3.82" height="4.48"/><rect id="rect28219" class="cls-4" x="257.42" y="269.25" width="2.82" height="4.48"/></g></g><path id="path28223" class="cls-4" d="M268.8,225.71a3.74,3.74,0,1,1,0,5.3,3.75,3.75,0,0,1,0-5.3"/><g id="g28225"><path id="path28227" class="cls-4" d="M301.22,282.12a6.22,6.22,0,1,1,0,8.82,6.23,6.23,0,0,1,0-8.82"/><path id="path28229" class="cls-4" d="M302.75,283.64a4.07,4.07,0,1,1,0,5.77,4.06,4.06,0,0,1,0-5.77"/><path id="path28231" class="cls-4" d="M307.45,284l.94,6.1H302.7l.94-6.1Z"/></g><g id="g28233"><path id="path28235" class="cls-4" d="M259.08,295.06a6.22,6.22,0,1,1,0,8.83,6.22,6.22,0,0,1,0-8.83"/><path id="path28237" class="cls-4" d="M260.6,296.58a4.07,4.07,0,1,1,0,5.77,4.07,4.07,0,0,1,0-5.77"/><path id="path28239" class="cls-4" d="M265.3,297l.94,6.1h-5.69l.94-6.1Z"/></g><path id="path27768" class="cls-4" d="M294.47,286.37a14.8,14.8,0,0,0-3.2-9.37c-4.25-5.16-11.13-5.15-15.37,0l-.08.09a14.9,14.9,0,0,0-3.08,9.93v.05a12.45,12.45,0,0,0,3.17,9,10.23,10.23,0,0,0,15.39,0,12.51,12.51,0,0,0,3.16-9.05c0-.24,0-.46,0-.7Z"/><path id="path27770" class="cls-8" d="M292.4,287.4a14,14,0,0,0-2.59-8.32c-3.44-4.59-9-4.58-12.45,0l-.05.08a14.15,14.15,0,0,0-2.5,8.82v0a11.71,11.71,0,0,0,2.57,8,8.17,8.17,0,0,0,5.38,3,8,8,0,0,0,1.69,0,8.26,8.26,0,0,0,5.38-3.06,11.78,11.78,0,0,0,2.56-8c0-.21,0-.41,0-.62Z"/><path id="path27772" class="cls-4" d="M279,290.52a7.47,7.47,0,0,1,9.1,0,4.65,4.65,0,0,1,.05,7.48,7.5,7.5,0,0,1-9.11.05,4.65,4.65,0,0,1-.08-7.48"/><path id="path27774" class="cls-9" d="M280.67,291.89a4.82,4.82,0,0,1,5.83,0,2.94,2.94,0,0,1,0,4.75,4.83,4.83,0,0,1-5.83,0,2.94,2.94,0,0,1-.06-4.75"/><path id="path27778" class="cls-9" d="M287.73,294.26a2.48,2.48,0,0,0,0-.27h-8.22a2.83,2.83,0,0,0,.19,1.31h7.84a2.73,2.73,0,0,0,.22-1Z"/><rect id="rect27780" class="cls-9" x="282.67" y="295.3" width="1.85" height="11.73"/></svg>